HIERARCHY
ROOT Hips
{
	OFFSET 0.000000 0.000000 0.000000
	CHANNELS 6 Xposition Yposition Zposition Zrotation Yrotation Xrotation 
	JOINT LHipJoint
	{
		OFFSET 0.000000 0.000000 0.000000
		CHANNELS 3 Zrotation Yrotation Xrotation
		JOINT LeftUpLeg
		{
			OFFSET 1.363060 -1.794630 0.839290
			CHANNELS 3 Zrotation Yrotation Xrotation
			JOINT LeftLeg
			{
				OFFSET 2.448110 -6.726130 0.000000
				CHANNELS 3 Zrotation Yrotation Xrotation
				JOINT LeftFoot
				{
					OFFSET 2.562200 -7.039590 0.000000
					CHANNELS 3 Zrotation Yrotation Xrotation
					JOINT LeftToeBase
					{
						OFFSET 0.157640 -0.433110 2.322550
						CHANNELS 3 Zrotation Yrotation Xrotation
						End Site
						{
							OFFSET 0.000000 0.000000 0.000000
						}
					}
				}
			}
		}
	}
	JOINT RHipJoint
	{
		OFFSET 0.000000 0.000000 0.000000
		CHANNELS 3 Zrotation Yrotation Xrotation
		JOINT RightUpLeg
		{
			OFFSET -1.305520 -1.794630 0.839290
			CHANNELS 3 Zrotation Yrotation Xrotation
			JOINT RightLeg
			{
				OFFSET -2.542530 -6.985550 0.000000
				CHANNELS 3 Zrotation Yrotation Xrotation
				JOINT RightFoot
				{
					OFFSET -2.568260 -7.056230 0.000000
					CHANNELS 3 Zrotation Yrotation Xrotation
					JOINT RightToeBase
					{
						OFFSET -0.164730 -0.452590 2.363150
						CHANNELS 3 Zrotation Yrotation Xrotation
						End Site
						{
							OFFSET 0.000000 0.000000 0.000000
						}
					}
				}
			}
		}
	}
	JOINT LowerBack
	{
		OFFSET 0.000000 0.000000 0.000000
		CHANNELS 3 Zrotation Yrotation Xrotation
		JOINT Spine
		{
			OFFSET 0.028270 2.035590 -0.193380
			CHANNELS 3 Zrotation Yrotation Xrotation
			JOINT Spine1
			{
				OFFSET 0.056720 2.048850 -0.042750
				CHANNELS 3 Zrotation Yrotation Xrotation
				JOINT Neck
				{
					OFFSET 0.000000 0.000000 0.000000
					CHANNELS 3 Zrotation Yrotation Xrotation
					JOINT Neck1
					{
						OFFSET -0.054170 1.746240 0.172020
						CHANNELS 3 Zrotation Yrotation Xrotation
						JOINT Head
						{
							OFFSET 0.104070 1.761360 -0.123970
							CHANNELS 3 Zrotation Yrotation Xrotation
							End Site
							{
								OFFSET 0.000000 0.000000 0.000000
							}
						}
					}
				}
				JOINT LeftShoulder
				{
					OFFSET 0.000000 0.000000 0.000000
					CHANNELS 3 Zrotation Yrotation Xrotation
					JOINT LeftArm
					{
						OFFSET 3.362410 1.200890 -0.311210
						CHANNELS 3 Zrotation Yrotation Xrotation
						JOINT LeftForeArm
						{
							OFFSET 4.983000 -0.000000 -0.000000
							CHANNELS 3 Zrotation Yrotation Xrotation
							JOINT LeftHand
							{
								OFFSET 3.483560 -0.000000 -0.000000
								CHANNELS 3 Zrotation Yrotation Xrotation
								JOINT LeftFingerBase
								{
									OFFSET 0.000000 0.000000 0.000000
									CHANNELS 3 Zrotation Yrotation Xrotation
									JOINT LeftHandIndex1
									{
										OFFSET 0.715260 -0.000000 -0.000000
										CHANNELS 3 Zrotation Yrotation Xrotation
										End Site
										{
											OFFSET 0.000000 0.000000 0.000000
										}
									}
								}
								JOINT LThumb
								{
									OFFSET 0.000000 0.000000 0.000000
									CHANNELS 3 Zrotation Yrotation Xrotation
									End Site
									{
										OFFSET 0.000000 0.000000 0.000000
									}
								}
							}
						}
					}
				}
				JOINT RightShoulder
				{
					OFFSET 0.000000 0.000000 0.000000
					CHANNELS 3 Zrotation Yrotation Xrotation
					JOINT RightArm
					{
						OFFSET -3.136600 1.374050 -0.404650
						CHANNELS 3 Zrotation Yrotation Xrotation
						JOINT RightForeArm
						{
							OFFSET -5.241900 -0.000000 -0.000000
							CHANNELS 3 Zrotation Yrotation Xrotation
							JOINT RightHand
							{
								OFFSET -3.444170 -0.000000 -0.000000
								CHANNELS 3 Zrotation Yrotation Xrotation
								JOINT RightFingerBase
								{
									OFFSET 0.000000 0.000000 0.000000
									CHANNELS 3 Zrotation Yrotation Xrotation
									JOINT RightHandIndex1
									{
										OFFSET -0.622530 -0.000000 -0.000000
										CHANNELS 3 Zrotation Yrotation Xrotation
										End Site
										{
											OFFSET 0.000000 0.000000 0.000000
										}
									}
								}
								JOINT RThumb
								{
									OFFSET 0.000000 0.000000 0.000000
									CHANNELS 3 Zrotation Yrotation Xrotation
									End Site
									{
										OFFSET 0.000000 0.000000 0.000000
									}
								}
							}
						}
					}
				}
			}
		}
	}
}
MOTION
Frames: 7
Frame Time: 0.008333
0.657755 17.461049 0.522512 -175.107282 -61.437546 -164.875488 -12.561821 4.434037 0.866977 -13.101011 35.255647 -23.310401 -3.976035 -1.261118 -3.696237 1.433379 12.067643 6.462798 3.045100 -0.000001 -53.392600 8.160871 -2.709633 7.740980 4.418709 5.933088 -22.714738 3.980587 2.211685 -2.110959 1.553136 5.580541 10.650667 0.722200 0.000000 -70.896000 1.496848 -6.961370 -12.499469 0.002523 -7.355831 -4.385346 -8.155983 -7.223018 1.802928 18.649010 -15.791206 -8.441261 -1.162510 -0.070931 -0.119719 0.000000 0.000000 0.000000 26.190928 -7.793353 4.565930 -3.397535 -34.567777 -27.876465 -3.329443 0.386006 -0.040599 -14.779303 23.020897 -3.053121 0.005298 -0.180841 -0.000000 0.000000 0.000000 0.000000 0.000000 0.000000 0.000000 8.728355 -17.325321 -3.898775 78.169894 20.342492 28.236179 -177.674999 53.063080 179.705959 -29.554153 39.756558 -11.619165 0.525911 -1.721586 -0.000000 0.000000 0.000000 0.000000 0.000000 0.000000 0.000000 
0.649579 17.456853 0.518093 -175.292956 -60.648149 -164.883793 -12.610469 4.449745 0.707975 -13.002128 35.905583 -22.756099 -3.998777 -1.266713 -3.965224 1.399875 11.990921 6.687450 3.052300 0.000000 -53.840200 8.139711 -2.746604 7.865745 4.195528 6.531509 -22.658939 3.922301 2.172961 -1.975762 1.525376 5.482383 10.485952 0.690100 0.000001 -70.955401 1.745116 -6.712729 -12.468851 0.045394 -7.144236 -4.344325 -8.147845 -7.005862 2.025464 18.240362 -16.023964 -8.668845 -1.131568 -0.064434 -0.185385 0.000000 0.000000 0.000000 25.280905 -5.849670 4.375812 -4.045572 -38.002455 -26.296017 -3.502942 2.344031 -0.033023 -16.096586 21.049558 -3.038009 0.022193 -0.158340 -0.000000 0.000000 0.000000 0.000000 0.000000 0.000000 0.000000 8.168050 -17.421820 -3.957619 78.704227 19.508438 28.280950 -177.543903 52.900991 179.700664 -29.371362 39.752419 -11.541250 0.512330 -1.721124 -0.000000 0.000000 0.000000 0.000000 0.000000 0.000000 0.000000 
0.645593 17.451696 0.512735 -175.497394 -59.858542 -164.901639 -12.644771 4.451329 0.537135 -12.842984 36.434715 -22.185793 -4.002849 -1.260654 -4.038642 1.393630 12.088366 6.771594 3.077700 -0.000000 -54.164300 8.126710 -2.773126 7.966957 3.971824 7.139818 -22.566925 3.853284 2.129366 -1.815602 1.485909 5.328026 10.255717 0.638500 -0.000001 -70.970100 1.940320 -6.458136 -12.388167 0.071798 -6.918295 -4.299238 -8.146684 -6.773527 2.219222 17.854101 -16.232013 -8.870604 -1.124087 -0.060231 -0.243315 0.000000 0.000000 0.000000 24.252761 -4.226445 4.222294 -5.151275 -40.272405 -24.826162 -3.404247 1.934015 -0.026172 -15.007006 19.491029 -2.611054 0.010968 -0.122497 -0.000000 0.000000 0.000000 0.000000 0.000000 0.000000 0.000000 7.680863 -17.396988 -3.991910 79.166305 18.578643 28.266150 -177.429982 52.716973 179.695548 -29.407162 39.760484 -11.557611 0.506639 -1.723307 -0.000000 0.000000 0.000000 0.000000 0.000000 0.000000 0.000000 
0.646456 17.445899 0.508014 -175.735145 -59.105102 -164.947506 -12.666560 4.443618 0.355119 -12.613068 36.831819 -21.550203 -3.984647 -1.243920 -3.952956 1.414219 12.363797 6.731034 3.124800 -0.000000 -54.361300 8.126505 -2.785275 8.025928 3.746217 7.704492 -22.396391 3.773822 2.079532 -1.622444 1.438353 5.151228 9.959416 0.579300 -0.000000 -70.959400 2.087625 -6.210400 -12.239554 0.075042 -6.687105 -4.251397 -8.171985 -6.534102 2.373616 17.474042 -16.399181 -9.020828 -1.153651 -0.059824 -0.286213 0.000000 0.000000 0.000000 23.196743 -3.115891 4.121142 -7.032458 -40.655925 -23.111326 -3.012583 -2.016251 -0.021429 -11.770773 18.691654 -1.947446 -0.025696 -0.068712 -0.000000 0.000000 0.000000 0.000000 0.000000 0.000000 0.000000 7.280655 -17.235521 -3.990902 79.562717 17.576159 28.182381 -177.345612 52.542301 179.691075 -29.688920 39.765361 -11.674904 0.510696 -1.728077 -0.000000 0.000000 0.000000 0.000000 0.000000 0.000000 0.000000 
0.650024 17.439117 0.503507 -176.006243 -58.453812 -164.953388 -12.667313 4.426814 0.185780 -12.406380 37.073106 -21.006876 -3.956498 -1.219832 -3.667188 1.455565 12.757263 6.538803 3.173200 -0.000001 -54.414400 8.136189 -2.790457 8.064368 3.512804 8.219854 -22.233980 3.687874 2.029369 -1.402986 1.382106 4.930143 9.602442 0.505299 0.000000 -70.917900 2.172530 -5.973890 -12.071598 0.051465 -6.460021 -4.229310 -8.247526 -6.301882 2.382902 17.140597 -16.518361 -9.044012 -1.214339 -0.064281 -0.292063 0.000000 0.000000 0.000000 22.100928 -2.596207 3.913619 -8.991433 -40.192797 -21.760463 -2.441143 -6.684504 -0.021108 -6.723372 16.718144 -0.976442 -0.080966 0.018526 0.000000 0.000000 0.000000 0.000000 0.000000 0.000000 0.000000 6.987502 -16.984523 -3.918568 79.849576 16.454415 28.022421 -177.282558 52.378609 179.686988 -30.179054 39.718815 -11.862162 0.522674 -1.732572 -0.000000 0.000000 0.000000 0.000000 0.000000 0.000000 0.000000 
0.655628 17.431412 0.500112 -176.318267 -57.933439 -164.919797 -12.649822 4.404613 0.036810 -12.236313 37.160669 -20.546247 -3.918817 -1.192038 -3.226205 1.514707 13.247942 6.219838 3.219500 0.000000 -54.334900 8.156033 -2.791493 8.080443 3.268127 8.654579 -22.076072 3.596927 1.978523 -1.150203 1.320728 4.692465 9.188777 0.426700 0.000000 -70.864300 2.211588 -5.744235 -11.893193 0.002307 -6.233049 -4.236536 -8.380416 -6.072956 2.247372 16.827180 -16.590735 -8.927962 -1.309996 -0.074020 -0.257938 0.000000 0.000000 0.000000 20.908591 -2.631943 3.596619 -10.857629 -39.002366 -20.556346 -1.798946 -11.924624 -0.030911 -0.817280 13.293458 -0.078001 -0.143776 0.140254 -0.000000 0.000000 0.000000 0.000000 0.000000 0.000000 0.000000 6.782733 -16.692442 -3.773047 80.054879 15.248277 27.808931 -177.243597 52.252324 179.683623 -30.819713 39.594672 -12.086304 0.541306 -1.735391 -0.000000 0.000000 0.000000 0.000000 0.000000 0.000000 0.000000 
0.661851 17.422751 0.498192 -176.671753 -57.565904 -164.832797 -12.616615 4.379820 -0.077714 -12.134534 37.101457 -20.204626 -3.875615 -1.164284 -2.660634 1.587320 13.798166 5.791145 3.254600 0.000000 -54.137600 8.182047 -2.793941 8.085468 3.011269 8.997456 -21.952011 3.504197 1.928577 -0.860565 1.256879 4.450978 8.726541 0.347800 -0.000000 -70.809400 2.225882 -5.515475 -11.736061 -0.064690 -6.003146 -4.271345 -8.561852 -5.844266 2.009826 16.513527 -16.628302 -8.701409 -1.433769 -0.087869 -0.192559 0.000000 0.000000 0.000000 19.562991 -3.035685 3.203850 -12.470842 -37.424895 -19.613802 -1.205602 -17.448646 -0.052798 4.903493 8.764289 0.378525 -0.195783 0.277201 -0.000000 0.000000 0.000000 0.000000 0.000000 0.000000 0.000000 6.637123 -16.421154 -3.573934 80.208061 14.014585 27.574989 -177.225966 52.178575 179.681313 -31.506425 39.367179 -12.294168 0.563866 -1.734934 -0.000000 0.000000 0.000000 0.000000 0.000000 0.000000 0.000000 
